<svg width="13" height="13" viewBox="0 0 13 13" fill="none" xmlns="http://www.w3.org/2000/svg">
<path d="M2.77778 9.72222H4.16667V6.25H2.77778V9.72222ZM8.33333 9.72222H9.72222V2.77778H8.33333V9.72222ZM5.55556 9.72222H6.94444V7.63889H5.55556V9.72222ZM5.55556 6.25H6.94444V4.86111H5.55556V6.25ZM1.38889 12.5C1.00694 12.5 0.679977 12.364 0.407986 12.092C0.135995 11.82 0 11.4931 0 11.1111V1.38889C0 1.00694 0.135995 0.679977 0.407986 0.407986C0.679977 0.135995 1.00694 0 1.38889 0H11.1111C11.4931 0 11.82 0.135995 12.092 0.407986C12.364 0.679977 12.5 1.00694 12.5 1.38889V11.1111C12.5 11.4931 12.364 11.82 12.092 12.092C11.82 12.364 11.4931 12.5 11.1111 12.5H1.38889ZM1.38889 11.1111H11.1111V1.38889H1.38889V11.1111Z" fill="#012B3A"/>
</svg>
