<svg width="14" height="11" viewBox="0 0 14 11" fill="none" xmlns="http://www.w3.org/2000/svg">
<path d="M10.8 6.075V4.725H13.5V6.075H10.8ZM11.61 10.8L9.45 9.18L10.26 8.1L12.42 9.72L11.61 10.8ZM10.26 2.7L9.45 1.62L11.61 0L12.42 1.08L10.26 2.7ZM2.025 10.125V7.425H1.35C0.97875 7.425 0.660938 7.29281 0.396563 7.02844C0.132188 6.76406 0 6.44625 0 6.075V4.725C0 4.35375 0.132188 4.03594 0.396563 3.77156C0.660938 3.50719 0.97875 3.375 1.35 3.375H4.05L7.425 1.35V9.45L4.05 7.425H3.375V10.125H2.025ZM8.1 7.66125V3.13875C8.40375 3.40875 8.64844 3.73781 8.83406 4.12594C9.01969 4.51406 9.1125 4.93875 9.1125 5.4C9.1125 5.86125 9.01969 6.28594 8.83406 6.67406C8.64844 7.06219 8.40375 7.39125 8.1 7.66125ZM1.35 4.725V6.075H4.42125L6.075 7.05375V3.74625L4.42125 4.725H1.35Z" fill="#012B3A"/>
</svg>
